<?xml version="1.0" encoding="UTF-8" standalone="no"?>
<!-- Created with Inkscape (http://www.inkscape.org/) -->

<svg
   width="922"
   height="487"
   viewBox="0 0 243.94583 128.85209"
   version="1.1"
   id="svg5"
   xmlns="http://www.w3.org/2000/svg"
   xmlns:svg="http://www.w3.org/2000/svg">
  <defs
     id="defs2" />
  <g
     id="layer1">
    <path
       style="fill:#ffffff;stroke:none;stroke-width:0.264583px;stroke-linecap:butt;stroke-linejoin:miter;stroke-opacity:1;fill-opacity:1"
       d="m 44.766932,128.77889 c -0.986056,-3.15538 0.203134,-6.95473 2.848626,-8.28287 1.076688,-2.96668 2.458491,-4.4995 4.542863,-6.00998 2.084373,-1.51048 4.259886,-1.85042 6.541805,-2.07671 1.629842,-1.19213 3.650018,-1.87868 5.964186,-2.18025 2.314168,-0.30158 4.200158,0.14089 7.226063,1.18327 0.236917,-2.58331 1.519701,-5.49606 4.98804,-7.40038 3.673567,-2.017 11.274232,-1.98501 14.072744,-0.55575 2.798511,1.42926 2.724041,1.65733 2.724041,1.65733 0,0 2.349994,-3.315 7.26606,-3.95618 4.91606,-0.64119 8.11641,1.16036 8.11641,1.16036 0,0 1.17925,-3.638486 5.98914,-5.14048 4.8099,-1.501995 7.61843,0.836698 7.61843,0.836698 0,0 -0.75824,-1.901344 1.18327,-3.549801 1.94151,-1.648457 2.95817,-0.788845 2.95817,-0.788845 0,0 0.71378,-5.128376 6.88547,-6.774904 6.17169,-1.646527 9.68026,2.436259 9.68026,2.436259 0,0 1.75012,-2.607133 5.56772,-2.598606 3.81759,0.0085 5.2789,1.612551 5.2789,1.612551 0,0 2.00822,-2.62956 5.38143,-3.017981 3.37322,-0.388421 5.26797,1.04587 5.26797,1.04587 0,0 -0.22082,-3.332791 2.28382,-5.592665 2.50465,-2.259875 4.81578,-1.70415 4.81578,-1.70415 0,0 -0.70186,-3.463267 1.49395,-6.392443 2.19581,-2.929176 5.01402,-3.073692 5.01402,-3.073692 0,0 -1.69834,-4.114817 2.36653,-9.663346 4.06487,-5.548529 8.08566,-4.535858 8.08566,-4.535858 0,0 -0.65284,-2.716431 2.15634,-4.73204 2.80918,-2.015609 4.94326,-0.789873 4.94326,-0.789873 0,0 -0.30365,-2.269246 1.04279,-3.515963 1.34644,-1.246718 3.20324,-0.591634 3.20324,-0.591634 0,0 -1.13377,-3.732041 1.11251,-6.261879 2.24629,-2.529837 5.29087,-2.449248 5.29087,-2.449248 0,0 -2.03464,-6.156859 2.08866,-10.208157 4.1233,-4.051297 9.3865,-2.041835 9.3865,-2.041835 0,0 0.128,-4.627498 2.16727,-7.239051 2.03927,-2.611552 5.48705,-2.993029 5.48705,-2.993029 0,0 -0.72169,-3.984734 5.02598,-6.0110115 5.74767,-2.0262776 8.58159,0.4890989 8.58159,0.4890989 0,0 1.86191,-3.2658077 4.53586,-2.9581674 0.0941,20.771832 -0.004,122.738532 -0.004,122.738532 0,0 -198.193222,3.08219 -199.179278,-0.0732 z"
       id="path3096" />
  </g>
</svg>
