<?xml version="1.0" encoding="UTF-8" standalone="no"?>
<!-- Created with Inkscape (http://www.inkscape.org/) -->

<svg
   width="210mm"
   height="297mm"
   viewBox="0 0 210 297"
   version="1.1"
   id="svg5"
   xmlns="http://www.w3.org/2000/svg"
   xmlns:svg="http://www.w3.org/2000/svg">
  <defs
     id="defs2" />
  <g
     id="layer1">
    <path
       style="fill:#3d3636;fill-opacity:1;stroke:none;stroke-width:0.226257px;stroke-linecap:butt;stroke-linejoin:miter;stroke-opacity:1"
       d="m 69.364542,91.889307 c 0,0 2.42636,-45.366638 27.251811,-45.366638 24.825457,0 27.251647,45.366638 27.251647,45.366638 V 261.91557 l -54.503,-4.1e-4 z"
       id="path1225" />
    <path
       style="fill:#2a2323;fill-opacity:1;stroke:none;stroke-width:0.264583px;stroke-linecap:butt;stroke-linejoin:miter;stroke-opacity:1"
       d="m 123.8486,261.89641 0.0194,8.28286 19.70172,19.72114 c 0,0 4.4603,-24.57408 0,-41.41435 -4.4603,-16.84027 -19.70078,-34.62998 -19.70078,-34.62998 l -0.0203,48.04033"
       id="path2323" />
    <path
       style="fill:#2a2323;fill-opacity:1;stroke:none;stroke-width:0.226273px;stroke-linecap:butt;stroke-linejoin:miter;stroke-opacity:1"
       d="M 123.86894,213.85608 H 69.365 v 48.05297 l 54.50316,0.007"
       id="path3556" />
    <path
       style="fill:#961717;fill-opacity:1;stroke:none;stroke-width:0.264583px;stroke-linecap:butt;stroke-linejoin:miter;stroke-opacity:1"
       d="m 123.86816,261.91605 20.73107,20.712 c -0.26219,2.85609 -1.02951,7.27236 -1.02951,7.27236 L 123.868,270.17927 Z"
       id="path5063" />
    <path
       style="fill:none;stroke:#961717;stroke-width:4.26637;stroke-linecap:butt;stroke-linejoin:miter;stroke-miterlimit:4;stroke-dasharray:none;stroke-opacity:1"
       d="M 69.364542,94.202872 H 123.8661"
       id="path13425" />
    <path
       style="fill:#2a2323;fill-opacity:1;stroke:none;stroke-width:0.264583px;stroke-linecap:butt;stroke-linejoin:miter;stroke-opacity:1"
       d="m 69.38534,261.89641 -0.0194,8.28286 -19.70172,19.72114 c 0,0 -4.4603,-24.57408 0,-41.41435 4.4603,-16.84027 19.70078,-34.62998 19.70078,-34.62998 l 0.0203,48.04033"
       id="path17907" />
    <path
       style="fill:#961717;fill-opacity:1;stroke:none;stroke-width:0.264583px;stroke-linecap:butt;stroke-linejoin:miter;stroke-opacity:1"
       d="m 69.36578,261.91605 -20.73107,20.712 c 0.26219,2.85609 1.02943,7.27195 1.02943,7.27195 l 19.70172,-19.72073 z"
       id="path17909" />
    <path
       style="fill:none;stroke:#342c2c;stroke-width:5.965;stroke-linecap:butt;stroke-linejoin:miter;stroke-miterlimit:4;stroke-dasharray:none;stroke-opacity:1"
       d="M 98.201916,213.78333 98.201709,289.9"
       id="path17980" />
    <path
       style="fill:none;stroke:#9f1919;stroke-width:5.965;stroke-linecap:butt;stroke-linejoin:miter;stroke-miterlimit:4;stroke-dasharray:none;stroke-opacity:1"
       d="M 98.201916,261.91116 98.201709,289.9"
       id="path20776" />
    <path
       style="fill:#1e1919;fill-opacity:1;stroke:none;stroke-width:0.155282px;stroke-linecap:butt;stroke-linejoin:miter;stroke-opacity:1"
       d="m 93.794792,213.91562 c -4.353195,7.29675 -4.448565,35.23819 -4.448565,48.20029 h 4.448565 z"
       id="path23232" />
    <path
       style="fill:none;stroke:#251f1f;stroke-width:2.165;stroke-linecap:butt;stroke-linejoin:miter;stroke-miterlimit:4;stroke-dasharray:none;stroke-opacity:1"
       d="M 94.141569,213.78333 94.141362,289.9"
       id="path24747" />
    <path
       style="fill:none;stroke:#6a1010;stroke-width:2.165;stroke-linecap:butt;stroke-linejoin:miter;stroke-miterlimit:4;stroke-dasharray:none;stroke-opacity:1"
       d="M 94.141569,261.91116 94.141362,289.9"
       id="path24749" />
  </g>
</svg>
